<svg xmlns="http://www.w3.org/2000/svg" xmlns:xlink="http://www.w3.org/1999/xlink" width="18" height="18" viewBox="0 0 18 18" fill="none"><defs><path id="path_0"
        transform="translate(0 0) rotate(0 9 9)"
        d="M0,18L18,18L18,0L0,0L0,18Z" /></defs><g opacity="1" transform="translate(0 0)  rotate(0 9 9)"><mask id="mask-0" fill="white"><use xlink:href="#path_0"></use></mask><g mask="url(#mask-0)"></g><g mask="url(#mask-0)"><path id="vector" fill-rule="evenodd" style="fill:#BFCBD9" transform="translate(2.8125 1.6875)  rotate(0 6.1875 7.3125)" opacity="1" d="M9.56 1.69L9.56 2.81L2.81 2.81L2.81 1.69L0 1.69L0 14.63L12.38 14.63L12.38 1.69L9.56 1.69Z M5.04 11.74L10.62 6.17L9.83 5.38L5.04 10.14L2.67 7.75L1.86 8.56L5.04 11.74Z M3.94 1.69L8.44 1.69L8.44 0L3.94 0L3.94 1.69Z " /></g></g></svg>