<svg xmlns="http://www.w3.org/2000/svg" xmlns:xlink="http://www.w3.org/1999/xlink" width="18" height="18" viewBox="0 0 18 18" fill="none"><defs><rect id="path_0" x="0" y="0" width="13" height="15" /></defs><g opacity="1" transform="translate(0 0)  rotate(0 9 9)"><path id="矩形 1" fill-rule="evenodd" style="fill:#CCCCCC" transform="translate(0 0)  rotate(0 9 9)" opacity="0" d="M0,18L18,18L18,0L0,0L0,18Z " /><g opacity="1" transform="translate(2.5 1.5)  rotate(0 6.5 7.5)"><mask id="bg-mask-0" fill="white"><use xlink:href="#path_0"></use></mask><g mask="url(#bg-mask-0)" ><path id="路径 1" fill-rule="evenodd" style="fill:#BFCBD9" transform="translate(0 0)  rotate(0 6.5 7.5)" opacity="1" d="M8.74,9.33C8.66,9.18 8.61,9.02 8.6,8.87C8.59,8.72 8.6,8.56 8.63,8.41C8.67,8.16 8.76,7.99 8.89,7.88C9.01,7.78 9.18,7.65 9.38,7.5C9.46,7.43 9.54,7.33 9.61,7.21C9.68,7.08 9.74,6.96 9.79,6.83C9.84,6.68 9.9,6.52 9.95,6.35C10.06,6.32 10.16,6.26 10.25,6.18C10.34,6.11 10.41,6.02 10.48,5.89C10.55,5.77 10.6,5.6 10.62,5.39C10.64,5.23 10.64,5.09 10.61,4.99C10.58,4.88 10.55,4.79 10.51,4.72C10.46,4.64 10.41,4.57 10.33,4.52C10.33,4.11 10.31,3.71 10.25,3.31C10.2,2.96 10.11,2.59 9.98,2.21C9.86,1.82 9.65,1.47 9.38,1.15C9.26,1.01 9.1,0.87 8.89,0.73C8.69,0.59 8.45,0.47 8.19,0.36C7.92,0.25 7.64,0.16 7.34,0.1C7.04,0.03 6.73,0 6.42,0C6.18,0 5.93,0.02 5.67,0.05C5.41,0.09 5.15,0.15 4.89,0.25C4.63,0.35 4.38,0.49 4.13,0.67C3.88,0.84 3.66,1.07 3.45,1.35C3.23,1.64 3.06,1.97 2.95,2.34C2.84,2.7 2.77,3.05 2.72,3.37C2.67,3.75 2.65,4.13 2.66,4.51C2.56,4.61 2.5,4.71 2.45,4.82C2.41,4.92 2.38,5.04 2.37,5.18C2.35,5.32 2.37,5.47 2.44,5.64C2.49,5.81 2.55,5.94 2.63,6.03C2.7,6.12 2.77,6.19 2.83,6.24C2.91,6.29 2.98,6.33 3.06,6.35C3.11,6.52 3.16,6.68 3.22,6.83C3.27,6.96 3.33,7.08 3.39,7.21C3.45,7.33 3.53,7.43 3.61,7.5C3.79,7.64 3.96,7.78 4.11,7.91C4.25,8.05 4.34,8.23 4.36,8.46C4.37,8.62 4.38,8.76 4.38,8.89C4.38,9.02 4.35,9.15 4.3,9.27C4.24,9.39 4.16,9.51 4.04,9.63C3.93,9.75 3.76,9.87 3.53,10C3.25,10.17 2.92,10.3 2.55,10.39C2.18,10.48 1.82,10.58 1.48,10.7C1.13,10.81 0.83,10.97 0.57,11.16C0.31,11.35 0.16,11.64 0.1,12.01C0,12.65 -0.03,13.18 0.03,13.59C0.09,14 0.17,14.25 0.28,14.33C0.34,14.38 0.49,14.43 0.74,14.48C0.98,14.53 1.28,14.58 1.63,14.63C1.98,14.68 2.37,14.72 2.79,14.77C3.22,14.81 3.66,14.85 4.09,14.89C4.52,14.92 4.94,14.95 5.35,14.97C5.76,14.99 6.12,15 6.42,15C6.73,15 7.09,14.99 7.51,14.97C7.93,14.95 8.37,14.92 8.82,14.89C9.28,14.85 9.73,14.81 10.18,14.76C10.63,14.71 11.04,14.65 11.4,14.59C11.77,14.52 12.08,14.46 12.32,14.39C12.57,14.32 12.72,14.25 12.78,14.18C12.85,14.07 12.91,13.91 12.94,13.7C12.98,13.49 13,13.26 13,13.02C13,12.78 12.99,12.55 12.96,12.31C12.93,12.08 12.89,11.88 12.84,11.72C12.75,11.45 12.58,11.24 12.36,11.09C12.13,10.93 11.87,10.8 11.57,10.7C11.27,10.59 10.97,10.5 10.66,10.42C10.34,10.34 10.06,10.25 9.79,10.15C9.5,10.04 9.26,9.92 9.1,9.78C8.94,9.64 8.81,9.49 8.74,9.33Z " /></g></g></g></svg>