<svg xmlns="http://www.w3.org/2000/svg" xmlns:xlink="http://www.w3.org/1999/xlink" width="18" height="18" viewBox="0 0 18 18" fill="none"><defs><path id="path_0"
        transform="translate(0 0) rotate(0 9 9)"
        d="M0,18L18,18L18,0L0,0L0,18Z" /></defs><g opacity="1" transform="translate(0 0)  rotate(0 9 9)"><mask id="mask-0" fill="white"><use xlink:href="#path_0"></use></mask><g mask="url(#mask-0)"></g><g mask="url(#mask-0)"><path id="vector" fill-rule="evenodd" style="fill:#BFCBD9" transform="translate(1.12445068359375 1.125)  rotate(0 7.8752810955047625 7.6640625)" opacity="1" d="M12.31 3.36L13.27 1.69L10.35 0L9.39 1.67C8.38 1.41 7.37 1.41 6.36 1.67L5.4 0L2.48 1.69L3.44 3.36C2.72 4.11 2.21 4.98 1.92 5.98L0 5.98L0 9.35L1.92 9.35C2.21 10.35 2.72 11.22 3.44 11.97L2.48 13.64L5.4 15.33L6.36 13.66C7.37 13.92 8.38 13.92 9.39 13.66L10.35 15.33L13.27 13.64L12.31 11.97C13.03 11.22 13.54 10.35 13.84 9.35L15.75 9.35L15.75 5.98L13.84 5.98C13.54 4.98 13.03 4.11 12.31 3.36Z M7.88 4.29C6.91 4.31 6.12 4.64 5.48 5.27C4.85 5.91 4.52 6.7 4.5 7.66C4.52 8.63 4.85 9.42 5.48 10.06C6.12 10.69 6.91 11.01 7.88 11.04C8.84 11.01 9.63 10.69 10.27 10.06C10.9 9.42 11.23 8.63 11.25 7.66C11.23 6.7 10.9 5.91 10.27 5.27C9.63 4.64 8.84 4.31 7.88 4.29Z " /></g></g></svg>