<?xml version="1.0" standalone="no"?><!DOCTYPE svg PUBLIC "-//W3C//DTD SVG 1.1//EN" "http://www.w3.org/Graphics/SVG/1.1/DTD/svg11.dtd"><svg class="icon" width="128px" height="128.00px" viewBox="0 0 1024 1024" version="1.1" xmlns="http://www.w3.org/2000/svg"><path  d="M889.55 491.81L528.14 245.74c-15.2-10.35-35.17-10.35-50.38 0L116.35 491.81a44.748 44.748 0 0 0-19.55 36.98v383.6c0 24.71 20.03 44.74 44.74 44.74h722.82c24.71 0 44.74-20.03 44.74-44.74v-383.6c0-14.81-7.32-28.64-19.55-36.98z m-69.93 375.85H186.28V552.45l316.67-215.59 316.67 215.59v315.21z"  /><path d="M166.73 391.67l336.22-228.92 336.22 228.92c7.71 5.24 16.47 7.76 25.14 7.76 14.31 0 28.38-6.84 37.03-19.55 13.89-20.43 8.63-48.26-11.8-62.17L528.14 71.63c-15.2-10.35-35.17-10.35-50.38 0L116.35 317.7c-20.43 13.92-25.69 41.75-11.8 62.17 13.9 20.43 41.78 25.69 62.18 11.8zM467.65 488.62v85.74h-85.74c-24.71 0-44.74 20.03-44.74 44.74s20.03 44.74 44.74 44.74h85.74v85.74c0 24.71 20.03 44.74 44.74 44.74s44.74-20.03 44.74-44.74v-85.74h85.76c24.71 0 44.74-20.03 44.74-44.74s-20.03-44.74-44.74-44.74h-85.76v-85.74c0-24.71-20.03-44.74-44.74-44.74s-44.74 20.03-44.74 44.74z"  /></svg>
