<?xml version="1.0" standalone="no"?><!DOCTYPE svg PUBLIC "-//W3C//DTD SVG 1.1//EN" "http://www.w3.org/Graphics/SVG/1.1/DTD/svg11.dtd"><svg class="icon" width="128px" height="128.00px" viewBox="0 0 1024 1024" version="1.1" xmlns="http://www.w3.org/2000/svg"><path d="M0 0m0 0l1024 0q0 0 0 0l0 1024q0 0 0 0l-1024 0q0 0 0 0l0-1024q0 0 0 0Z" fill="#E8EFF8" /><path d="M162.909091 581.818182a23.272727 23.272727 0 0 1 23.272727-23.272727h116.363637a23.272727 23.272727 0 0 1 23.272727 23.272727v256a23.272727 23.272727 0 0 1-23.272727 23.272727H186.181818a23.272727 23.272727 0 0 1-23.272727-23.272727V581.818182z" fill="#247ADE" /><path d="M418.909091 721.454545a23.272727 23.272727 0 0 1 23.272727-23.272727h116.363637a23.272727 23.272727 0 0 1 23.272727 23.272727v116.363637a23.272727 23.272727 0 0 1-23.272727 23.272727h-116.363637a23.272727 23.272727 0 0 1-23.272727-23.272727v-116.363637z" fill="#69CB91" /><path d="M837.818182 488.727273a23.272727 23.272727 0 0 0-23.272727-23.272728h-116.363637a23.272727 23.272727 0 0 0-23.272727 23.272728v349.090909a23.272727 23.272727 0 0 0 23.272727 23.272727h116.363637a23.272727 23.272727 0 0 0 23.272727-23.272727V488.727273z" fill="#A0BFF7" /><path d="M798.487273 254.650182l-115.851637-13.824c-9.704727-1.163636-16.523636-9.076364-15.220363-17.687273a15.499636 15.499636 0 0 1 6.818909-10.472727 19.432727 19.432727 0 0 1 13.125818-3.072l158.347636 18.874182c9.704727 1.163636 16.523636 9.076364 15.220364 17.710545l-21.248 140.567273a15.499636 15.499636 0 0 1-6.818909 10.449454 19.432727 19.432727 0 0 1-13.149091 3.095273c-9.704727-1.163636-16.523636-9.099636-15.220364-17.733818l15.546182-102.865455-160.814545 109.009455a19.432727 19.432727 0 0 1-13.149091 3.095273 18.315636 18.315636 0 0 1-12.8-7.400728l-80.756364-117.271272L191.371636 508.811636a19.269818 19.269818 0 0 1-10.705454 3.188364c-9.774545 0-17.733818-7.051636-17.733818-15.755636 0-4.957091 2.606545-9.611636 7.074909-12.567273v-0.023273L546.792727 231.493818a18.222545 18.222545 0 0 1 1.419637-0.861091c8.378182-4.538182 19.316364-2.187636 24.413091 5.236364l80.686545 117.178182 145.198545-98.397091z" fill="#247ADE" /></svg>